<svg width="84" height="96" viewBox="0 0 84 96" fill="none" xmlns="http://www.w3.org/2000/svg">
<path d="M41.7757 11.9535C29.8691 11.9535 20.0093 17.1367 13.1033 23.5066L13.4324 3.75733C13.4668 1.71664 11.8389 0.0332458 9.79704 0C9.77612 0 9.75521 0 9.73429 0C7.7218 0 6.07296 1.6156 6.0384 3.63537L5.54551 33.2112C5.52944 34.2131 5.92018 35.1793 6.62992 35.8879C7.33854 36.5965 8.29968 36.987 9.30658 36.9699L38.143 36.477C40.1837 36.4413 41.8103 34.759 41.7759 32.7172C41.7414 30.6974 40.0925 29.0831 38.0802 29.0831C38.0593 29.0831 38.0384 29.0831 38.0162 29.0831L17.6335 29.4319C23.3329 24.0305 31.7424 19.3477 41.7759 19.3477C62.3422 19.3477 76.1577 37.1253 76.1577 53.7295C76.1577 70.3929 62.3422 88.2345 41.7759 88.2345C19.3427 88.2345 7.3942 68.1944 7.3942 53.7295C7.3942 51.6875 5.73919 50.0325 3.69719 50.0325C1.65519 50.0325 0 51.6873 0 53.7293C0 73.964 16.7867 95.6283 41.7757 95.6283C66.7648 95.6283 83.5515 73.964 83.5515 53.7282C83.5515 33.5538 66.7648 11.9535 41.7757 11.9535Z" fill="#C4C4C4"/>
</svg>
