<svg width="280" height="316" viewBox="0 0 280 316" fill="none" xmlns="http://www.w3.org/2000/svg">
<g clip-path="url(#clip0)">
<path d="M276.438 237C278.635 233.183 280 228.883 280 225.021V90.9779C280 87.1164 278.637 82.8171 276.439 79.0005L140 158L276.438 237Z" fill="#929292"/>
<path d="M152.124 313.103L267.876 246.082C271.21 244.151 274.241 240.817 276.438 237L140 158L3.56201 237C5.75901 240.817 8.79051 244.152 12.124 246.082L127.876 313.103C134.543 316.964 145.456 316.964 152.124 313.103Z" fill="#787878"/>
<path d="M276.439 78.9995C274.241 75.182 271.209 71.8481 267.876 69.9174L152.124 2.89617C145.456 -0.96539 134.544 -0.96539 127.876 2.89617L12.1242 69.9174C5.45542 73.778 0 83.2557 0 90.9779V225.021C0 228.883 1.36431 233.183 3.56222 237L140 158L276.439 78.9995Z" fill="#C0C0C0"/>
<path d="M140 251.602C88.5357 251.602 46.6665 209.612 46.6665 158C46.6665 106.387 88.5357 64.3975 140 64.3975C173.208 64.3975 204.179 82.3196 220.826 111.169L180.433 134.61C172.102 120.17 156.608 111.199 140 111.199C114.267 111.199 93.3332 132.193 93.3332 158C93.3332 183.806 114.267 204.801 140 204.801C156.61 204.801 172.104 195.83 180.436 181.387L220.828 204.827C204.182 233.679 173.21 251.602 140 251.602Z" fill="white"/>
<path d="M233.334 152.799H222.963V142.399H212.594V152.799H202.223V163.199H212.594V173.6H222.963V163.199H233.334V152.799Z" fill="white"/>
<path d="M272.222 152.799H261.851V142.399H251.482V152.799H241.111V163.199H251.482V173.6H261.851V163.199H272.222V152.799Z" fill="white"/>
</g>
<defs>
<clipPath id="clip0">
<rect width="280" height="316" fill="white"/>
</clipPath>
</defs>
</svg>
