<svg width="280" height="280" viewBox="0 0 280 280" fill="none" xmlns="http://www.w3.org/2000/svg">
<g clip-path="url(#clip0)">
<path d="M140 280C217.32 280 280 217.32 280 140C280 62.6801 217.32 0 140 0C62.6801 0 0 62.6801 0 140C0 217.32 62.6801 280 140 280Z" fill="#929292"/>
<path opacity="0.1" d="M42.963 39.375C28.7309 52.0573 17.2388 67.5125 9.1911 84.7933C1.14337 102.074 -3.29045 120.816 -3.83859 139.871C-4.38673 158.926 -1.03763 177.892 6.00341 195.607C13.0445 213.322 23.6291 229.412 37.1086 242.892C50.588 256.371 66.6783 266.956 84.3932 273.997C102.108 281.038 121.074 284.387 140.129 283.839C159.184 283.291 177.926 278.857 195.207 270.809C212.488 262.762 227.943 251.27 240.625 237.037L42.963 39.375Z" fill="#D8D8D8"/>
<path d="M133.131 190.531C123.607 195.165 113.091 197.389 102.506 197.006C95.5113 197.313 88.5317 196.121 82.0351 193.51C75.5385 190.9 69.675 186.931 64.8373 181.869C55.1125 170.968 50.0404 156.694 50.7061 142.1C50.3673 134.273 51.6021 126.457 54.3375 119.115C57.0728 111.773 61.2532 105.054 66.6311 99.3565C71.8839 93.9825 78.1999 89.7633 85.1756 86.9685C92.1513 84.1736 99.6333 82.8647 107.144 83.1252C116.014 82.7867 124.86 84.2759 133.131 87.5002V101.281C125.109 96.8228 116.058 94.545 106.881 94.6752C101.167 94.4858 95.4787 95.5198 90.1969 97.708C84.9151 99.8962 80.162 103.188 76.2561 107.363C68.0639 116.701 63.8274 128.862 64.4436 141.269C63.8376 152.995 67.7879 164.501 75.4686 173.381C79.1511 177.341 83.6455 180.458 88.6443 182.519C93.643 184.581 99.0281 185.538 104.431 185.325C114.513 185.576 124.465 183.016 133.175 177.931L133.131 190.531Z" fill="white"/>
<path d="M230.825 115.762L229.075 123.9H208.95L204.137 146.999H225.75L223.694 155.137H202.519L195.737 185.762H186.069L192.675 155.137H173.425L166.95 185.762H157.5L163.975 155.137H143.675L145.206 146.999H165.594L170.275 123.943H148.969L150.587 115.806H171.894L178.369 84.8745H188.125L181.65 115.806H201.031L207.637 84.8745H217.087L210.612 115.806L230.825 115.762ZM199.456 123.9H180.031L175 146.999H194.512L199.456 123.9Z" fill="white"/>
</g>
<defs>
<clipPath id="clip0">
<rect width="280" height="280" fill="white"/>
</clipPath>
</defs>
</svg>
