<svg width="114" height="114" viewBox="0 0 114 114" fill="none" xmlns="http://www.w3.org/2000/svg">
<g clip-path="url(#clip0)">
<path d="M105.856 44.5814L58.3564 1.03963C56.8087 -0.376239 54.4286 -0.341727 52.9243 1.11756L8.06305 44.6591C7.29511 45.4046 6.86093 46.4299 6.86093 47.4998V110.041C6.86093 112.228 8.63283 114 10.8193 114H43.8054C45.9917 114 47.7638 112.228 47.7638 110.041V81.0137H66.236V110.041C66.236 112.228 68.0079 114 70.1944 114H103.18C105.367 114 107.139 112.229 107.139 110.041V47.5C107.139 46.3903 106.674 45.3322 105.856 44.5814ZM99.2221 106.083H74.1528V77.0556C74.1528 74.8693 72.3807 73.0972 70.1944 73.0972H43.8056C41.6194 73.0972 39.8472 74.8693 39.8472 77.0556V106.083H14.7777V49.1744L55.7585 9.39971L99.2223 49.2416V106.083H99.2221Z" fill="#C4C4C4"/>
</g>
<defs>
<clipPath id="clip0">
<rect width="114" height="114" fill="C4C4C4"/>
</clipPath>
</defs>
</svg>
