<svg width="101" height="101" viewBox="0 0 101 101" fill="none" xmlns="http://www.w3.org/2000/svg">
<path fill-rule="evenodd" clip-rule="evenodd" d="M50.208 0.208252C22.5944 0.208252 0.208008 22.5946 0.208008 50.2083C0.208008 77.8219 22.5944 100.208 50.208 100.208C77.8216 100.208 100.208 77.8219 100.208 50.2083C100.208 22.5946 77.8216 0.208252 50.208 0.208252ZM47.9353 22.9355C46.7298 22.9355 45.5736 23.4144 44.7212 24.2669C43.8687 25.1193 43.3898 26.2754 43.3898 27.481C43.3898 28.6865 43.8687 29.8427 44.7212 30.6951C45.5736 31.5475 46.7298 32.0264 47.9353 32.0264H50.208C51.4135 32.0264 52.5697 31.5475 53.4221 30.6951C54.2746 29.8427 54.7535 28.6865 54.7535 27.481C54.7535 26.2754 54.2746 25.1193 53.4221 24.2669C52.5697 23.4144 51.4135 22.9355 50.208 22.9355H47.9353ZM41.1171 41.1173C39.9116 41.1173 38.7554 41.5962 37.903 42.4487C37.0505 43.3011 36.5716 44.4573 36.5716 45.6628C36.5716 46.8683 37.0505 48.0245 37.903 48.8769C38.7554 49.7294 39.9116 50.2083 41.1171 50.2083H45.6626V63.8446H41.1171C39.9116 63.8446 38.7554 64.3235 37.903 65.1759C37.0505 66.0284 36.5716 67.1845 36.5716 68.3901C36.5716 69.5956 37.0505 70.7518 37.903 71.6042C38.7554 72.4566 39.9116 72.9355 41.1171 72.9355H59.2989C60.5044 72.9355 61.6606 72.4566 62.513 71.6042C63.3655 70.7518 63.8444 69.5956 63.8444 68.3901C63.8444 67.1845 63.3655 66.0284 62.513 65.1759C61.6606 64.3235 60.5044 63.8446 59.2989 63.8446H54.7535V45.6628C54.7535 44.4573 54.2746 43.3011 53.4221 42.4487C52.5697 41.5962 51.4135 41.1173 50.208 41.1173H41.1171Z" fill="white"/>
</svg>
