<svg width="100" height="100" viewBox="0 0 100 100" fill="none" xmlns="http://www.w3.org/2000/svg">
<path d="M45 25.0002H55V60.0002H45V25.0002ZM45 65.0002H55V75.0002H45V65.0002Z" fill="#C4C4C4"/>
<path d="M98.535 26.465L73.535 1.465C73.0715 0.999792 72.5205 0.630853 71.9138 0.379427C71.3071 0.128001 70.6567 -0.000947245 70 5.23837e-06H30C29.3433 -0.000947245 28.6929 0.128001 28.0862 0.379427C27.4795 0.630853 26.9285 0.999792 26.465 1.465L1.465 26.465C0.999792 26.9285 0.630853 27.4795 0.379427 28.0862C0.128001 28.6929 -0.000947245 29.3433 5.23837e-06 30V70C5.23837e-06 71.33 0.525005 72.6 1.465 73.535L26.465 98.535C26.9285 99.0002 27.4795 99.3692 28.0862 99.6206C28.6929 99.872 29.3433 100.001 30 100H70C71.33 100 72.6 99.475 73.535 98.535L98.535 73.535C99.0002 73.0715 99.3692 72.5205 99.6206 71.9138C99.872 71.3071 100.001 70.6567 100 70V30C100.001 29.3433 99.872 28.6929 99.6206 28.0862C99.3692 27.4795 99.0002 26.9285 98.535 26.465V26.465ZM90 67.93L67.93 90H32.07L10 67.93V32.07L32.07 10H67.93L90 32.07V67.93V67.93Z" fill="#C4C4C4"/>
</svg>
