<svg width="100" height="100" viewBox="0 0 100 100" fill="none" xmlns="http://www.w3.org/2000/svg">
<path d="M50 0C40.1109 0 30.444 2.93245 22.2215 8.42652C13.999 13.9206 7.59043 21.7295 3.80604 30.8658C0.021664 40.0021 -0.968502 50.0555 0.960758 59.7545C2.89002 69.4535 7.65206 78.3627 14.6447 85.3553C21.6373 92.3479 30.5465 97.11 40.2455 99.0392C49.9445 100.969 59.9979 99.9783 69.1342 96.194C78.2705 92.4096 86.0794 86.001 91.5735 77.7785C97.0676 69.556 100 59.8891 100 50C100 36.7392 94.7322 24.0215 85.3553 14.6447C75.9785 5.26784 63.2608 0 50 0V0ZM50 93.75C41.3471 93.75 32.8885 91.1841 25.6938 86.3768C18.4992 81.5695 12.8916 74.7367 9.58029 66.7424C6.26896 58.7481 5.40256 49.9515 7.09067 41.4648C8.77877 32.9781 12.9455 25.1826 19.0641 19.0641C25.1826 12.9455 32.9781 8.77875 41.4648 7.09064C49.9515 5.40254 58.7481 6.26894 66.7424 9.58027C74.7367 12.8916 81.5695 18.4991 86.3768 25.6938C91.1841 32.8884 93.75 41.3471 93.75 50C93.75 61.6032 89.1406 72.7312 80.9359 80.9359C72.7312 89.1406 61.6032 93.75 50 93.75Z" fill="#C4C4C4"/>
<path d="M81.2494 31.5628C80.6639 30.9807 79.8719 30.6541 79.0463 30.6541C78.2207 30.6541 77.4287 30.9807 76.8432 31.5628L42.1557 66.094L23.4057 47.344C22.8338 46.7266 22.0401 46.3616 21.1991 46.3293C20.3581 46.2971 19.5388 46.6003 18.9213 47.1722C18.3039 47.744 17.9389 48.5378 17.9066 49.3787C17.8744 50.2197 18.1776 51.0391 18.7494 51.6565L42.1557 75.0003L81.2494 36.0003C81.5423 35.7098 81.7748 35.3641 81.9335 34.9833C82.0921 34.6025 82.1738 34.1941 82.1738 33.7815C82.1738 33.369 82.0921 32.9605 81.9335 32.5797C81.7748 32.1989 81.5423 31.8533 81.2494 31.5628Z" fill="#C4C4C4"/>
</svg>
