<svg width="89" height="89" viewBox="0 0 89 89" fill="none" xmlns="http://www.w3.org/2000/svg">
<path d="M44.4445 0C35.6542 0 27.0613 2.60662 19.7525 7.49024C12.4436 12.3739 6.74705 19.3151 3.38315 27.4363C0.0192569 35.5575 -0.860891 44.4937 0.854007 53.1151C2.56891 61.7365 6.80183 69.6557 13.0175 75.8714C19.2332 82.0871 27.1524 86.32 35.7738 88.0349C44.3952 89.7498 53.3315 88.8697 61.4526 85.5058C69.5738 82.1419 76.5151 76.4453 81.3987 69.1365C86.2823 61.8276 88.8889 53.2347 88.8889 44.4444C88.8889 32.657 84.2064 21.3524 75.8714 13.0175C67.5365 4.68253 56.2319 0 44.4445 0V0ZM73.4722 29.5278L36.9722 66L15.4167 44.4444C14.68 43.7077 14.2661 42.7085 14.2661 41.6667C14.2661 40.6248 14.68 39.6256 15.4167 38.8889C16.1534 38.1522 17.1526 37.7383 18.1945 37.7383C19.2363 37.7383 20.2355 38.1522 20.9722 38.8889L37.0278 54.9444L67.9722 24.0278C68.337 23.663 68.7701 23.3736 69.2467 23.1762C69.7233 22.9788 70.2341 22.8772 70.75 22.8772C71.2659 22.8772 71.7767 22.9788 72.2533 23.1762C72.73 23.3736 73.163 23.663 73.5278 24.0278C73.8926 24.3926 74.1819 24.8256 74.3794 25.3022C74.5768 25.7788 74.6784 26.2897 74.6784 26.8056C74.6784 27.3214 74.5768 27.8323 74.3794 28.3089C74.1819 28.7855 73.8926 29.2185 73.5278 29.5833L73.4722 29.5278Z" fill="white"/>
</svg>
