<svg width="100" height="100" viewBox="0 0 100 100" fill="none" xmlns="http://www.w3.org/2000/svg">
<path d="M50 0C22.3884 0 0 22.3884 0 50C0 77.6116 22.3884 100 50 100C77.6116 100 100 77.6116 100 50C100 22.3884 77.6116 0 50 0ZM50 91.5179C27.0759 91.5179 8.48214 72.9241 8.48214 50C8.48214 27.0759 27.0759 8.48214 50 8.48214C72.9241 8.48214 91.5179 27.0759 91.5179 50C91.5179 72.9241 72.9241 91.5179 50 91.5179Z" fill="#C4C4C4"/>
<path d="M44 29.5714C44 31.0491 44.6321 32.4662 45.7574 33.511C46.8826 34.5559 48.4087 35.1429 50 35.1429C51.5913 35.1429 53.1174 34.5559 54.2426 33.511C55.3679 32.4662 56 31.0491 56 29.5714C56 28.0938 55.3679 26.6767 54.2426 25.6318C53.1174 24.587 51.5913 24 50 24C48.4087 24 46.8826 24.587 45.7574 25.6318C44.6321 26.6767 44 28.0938 44 29.5714V29.5714ZM53 42.5714H47C46.45 42.5714 46 42.9893 46 43.5V75.0714C46 75.5821 46.45 76 47 76H53C53.55 76 54 75.5821 54 75.0714V43.5C54 42.9893 53.55 42.5714 53 42.5714Z" fill="#C4C4C4"/>
</svg>
