<svg width="84" height="84" viewBox="0 0 84 84" fill="none" xmlns="http://www.w3.org/2000/svg">
<path d="M37.833 21.1667H46.1663V50.3334H37.833V21.1667ZM37.833 54.5001H46.1663V62.8334H37.833V54.5001Z" fill="white"/>
<path d="M82.4455 22.3874L61.6122 1.55409C61.2259 1.16641 60.7668 0.858963 60.2612 0.649441C59.7556 0.439919 59.2136 0.332463 58.6663 0.333256H25.333C24.7857 0.332463 24.2437 0.439919 23.7382 0.649441C23.2326 0.858963 22.7735 1.16641 22.3872 1.55409L1.55385 22.3874C1.16617 22.7737 0.858719 23.2328 0.649197 23.7384C0.439675 24.244 0.332218 24.786 0.333012 25.3333V58.6666C0.333012 59.7749 0.770512 60.8333 1.55385 61.6124L22.3872 82.4458C22.7735 82.8334 23.2326 83.1409 23.7382 83.3504C24.2437 83.5599 24.7857 83.6674 25.333 83.6666H58.6663C59.7747 83.6666 60.833 83.2291 61.6122 82.4458L82.4455 61.6124C82.8332 61.2262 83.1406 60.767 83.3502 60.2614C83.5597 59.7559 83.6671 59.2139 83.6663 58.6666V25.3333C83.6671 24.786 83.5597 24.244 83.3502 23.7384C83.1406 23.2328 82.8332 22.7737 82.4455 22.3874V22.3874ZM75.333 56.9416L56.9413 75.3333H27.058L8.66634 56.9416V27.0583L27.058 8.66659H56.9413L75.333 27.0583V56.9416V56.9416Z" fill="white"/>
</svg>
