<svg width="100" height="101" viewBox="0 0 100 101" fill="none" xmlns="http://www.w3.org/2000/svg">
<path fill-rule="evenodd" clip-rule="evenodd" d="M85.3732 14.622C65.874 -4.87088 34.1213 -4.87715 14.6221 14.622C-4.87715 34.1275 -4.87088 65.874 14.6221 85.3795C34.1213 104.872 65.8678 104.879 85.3732 85.3795C104.879 65.8678 104.872 34.1275 85.3732 14.622V14.622ZM22.3252 77.6764C7.03798 62.3954 7.02545 37.5435 22.2813 22.2876C37.5372 7.02545 62.3891 7.04425 77.6764 22.3252C92.9573 37.6062 92.9636 62.4643 77.714 77.7202C62.4455 92.9761 37.5999 92.9573 22.3252 77.6764Z" fill="#C4C4C4"/>
<path fill-rule="evenodd" clip-rule="evenodd" d="M63.5501 69.102C62.6562 69.1298 61.7857 68.8134 61.1182 68.2182L50.0429 57.1555L39.419 67.7795C38.6793 68.4029 37.7344 68.729 36.7677 68.6946C36.0584 68.6859 35.3581 68.5344 34.7088 68.249C34.0594 67.9636 33.4742 67.5503 32.9882 67.0336C31.603 65.6547 31.2959 64.2883 31.2896 63.3983C31.2383 62.4793 31.5539 61.5775 32.1671 60.8911L42.9728 50.0791L32.4429 39.5617C31.4902 38.6028 30.6941 35.6318 33.195 33.1372C34.6053 31.727 35.9905 31.4324 36.9118 31.4324C38.0588 31.4324 38.9175 31.8837 39.3375 32.3161L50.0429 43.009L60.6731 32.3788C61.415 31.755 62.3621 31.4289 63.3307 31.4637C64.0416 31.4716 64.7435 31.6234 65.3942 31.91C66.0448 32.1965 66.6307 32.6118 67.1165 33.131C69.4857 35.5065 69.0094 38.2079 67.9376 39.2734L57.1193 50.0917L68.0065 60.9726C68.4264 61.3988 68.9216 62.3515 68.9216 63.6302C68.915 64.3389 68.7643 65.0388 68.4788 65.6875C68.1933 66.3361 67.7788 66.9199 67.2606 67.4034C65.8504 68.8074 64.4714 69.102 63.5501 69.102Z" fill="#C4C4C4"/>
</svg>
