<svg width="280" height="521" viewBox="0 0 280 521" fill="none" xmlns="http://www.w3.org/2000/svg">
<path d="M268.205 410.665H266.243V409.567H271.525V410.665H269.576V416.141H268.205V410.665ZM278.74 410.951H278.709L276.765 416.142H275.876L273.944 410.951H273.92V416.142H272.628V409.568H274.53L276.32 414.223L278.105 409.568H280V416.142H278.739V410.951H278.74Z" fill="#5382A1"/>
<path d="M92.5746 276.242C92.5746 276.242 78.9244 284.18 102.289 286.866C130.594 290.095 145.061 289.632 176.254 283.729C176.254 283.729 184.454 288.871 195.908 293.325C125.982 323.294 37.6515 291.589 92.5746 276.242Z" fill="#9C9C9C"/>
<path d="M84.0296 237.135C84.0296 237.135 68.7196 248.468 92.1014 250.886C122.338 254.005 146.217 254.261 187.536 246.304C187.536 246.304 193.251 252.098 202.237 255.267C117.693 279.989 23.5253 257.216 84.0296 237.135Z" fill="#9F9F9F"/>
<path d="M156.063 170.795C173.293 190.631 151.536 208.482 151.536 208.482C151.536 208.482 195.285 185.898 175.193 157.616C156.428 131.242 142.037 118.138 219.942 72.9561C219.942 72.9561 97.6577 103.497 156.063 170.795Z" fill="#F4F4F4"/>
<path d="M248.546 305.169C248.546 305.169 258.647 313.492 237.421 319.931C197.059 332.158 69.4293 335.851 33.9743 320.418C21.2292 314.874 45.1299 307.179 52.6482 305.565C60.489 303.865 64.9697 304.181 64.9697 304.181C50.7958 294.196 -26.6445 323.787 25.6339 332.261C168.205 355.382 285.527 321.85 248.546 305.169Z" fill="#A2A2A2"/>
<path d="M99.1382 196.615C99.1382 196.615 34.2177 212.034 76.1482 217.634C93.8526 220.004 129.146 219.468 162.02 216.714C188.888 214.447 215.865 209.629 215.865 209.629C215.865 209.629 206.392 213.686 199.538 218.366C133.612 235.704 6.256 227.638 42.9202 209.903C73.9271 194.915 99.1382 196.615 99.1382 196.615Z" fill="#A5A5A5"/>
<path d="M215.598 261.711C282.614 226.887 251.629 193.421 230.001 197.93C224.7 199.033 222.336 199.989 222.336 199.989C222.336 199.989 224.304 196.906 228.063 195.572C270.849 180.53 303.755 239.937 214.251 263.466C214.251 263.467 215.288 262.54 215.598 261.711Z" fill="#989898"/>
<path d="M175.193 0C175.193 0 212.308 37.1273 139.991 94.2185C82.001 140.016 126.768 166.128 139.967 195.962C106.117 165.421 81.276 138.536 97.9416 113.513C122.403 76.7828 190.168 58.9744 175.193 0Z" fill="#F5F5F5"/>
<path d="M105.724 356.077C170.052 360.195 268.834 353.792 271.173 323.354C271.173 323.354 266.676 334.893 218.01 344.057C163.105 354.389 95.388 353.183 55.2241 346.561C55.2251 346.56 63.4462 353.366 105.724 356.077Z" fill="#A4A4A4"/>
<path d="M95.1814 472.381C89.113 477.645 82.7039 480.599 76.9523 480.599C68.7428 480.599 64.3073 475.677 64.3073 467.781C64.3073 459.24 69.0595 452.996 88.1252 452.996H95.1804V472.381H95.1814ZM111.926 491.274V432.793C111.926 417.854 103.405 407.996 82.8618 407.996C70.8686 407.996 60.3628 410.958 51.824 414.735L54.2887 425.086C61.0117 422.619 69.7142 420.321 78.2559 420.321C90.0903 420.321 95.1814 425.086 95.1814 434.937V442.328H89.2748C60.5217 442.328 47.5513 453.49 47.5513 470.243C47.5513 484.701 56.0987 492.919 72.1924 492.919C82.5373 492.919 90.2597 488.648 97.4785 482.398L98.7889 491.275H111.926V491.274Z" fill="#A2A2A2"/>
<path d="M167.809 491.274H146.925L121.791 409.477H140.028L155.624 459.734L159.091 474.848C166.981 452.995 172.561 430.825 175.352 409.477H193.093C188.34 436.412 179.787 465.977 167.809 491.274Z" fill="#A0A0A0"/>
<path d="M247.924 472.381C241.844 477.645 235.423 480.599 229.672 480.599C221.477 480.599 217.03 475.677 217.03 467.781C217.03 459.24 221.793 452.996 240.857 452.996H247.924V472.381ZM264.666 491.274V432.793C264.666 417.854 256.125 407.996 235.605 407.996C223.603 407.996 213.094 410.958 204.559 414.735L207.02 425.086C213.746 422.619 222.464 420.321 230.999 420.321C242.825 420.321 247.924 425.086 247.924 434.937V442.328H242.008C213.246 442.328 200.281 453.49 200.281 470.243C200.281 484.701 208.822 492.919 224.913 492.919C235.263 492.919 242.983 488.648 250.214 482.398L251.529 491.275H264.666V491.274Z" fill="#9C9C9C"/>
<path d="M29.1912 505.165C24.4177 512.134 16.7079 517.648 8.2673 520.768L0 511.039C6.42456 507.742 11.9345 502.418 14.4945 497.459C16.7089 493.048 17.6254 487.364 17.6254 473.771V380.387H35.4155V472.491C35.4145 490.665 33.9617 498.006 29.1912 505.165Z" fill="#A0A0A0"/>
</svg>
