<svg width="280" height="280" viewBox="0 0 280 280" fill="none" xmlns="http://www.w3.org/2000/svg">
<path d="M280 0H0V280H280V0Z" fill="#8F8F8F"/>
<path d="M188.089 218.751C193.729 227.96 201.067 234.729 214.045 234.729C224.947 234.729 231.911 229.28 231.911 221.751C231.911 212.729 224.756 209.533 212.756 204.284L206.178 201.462C187.191 193.373 174.578 183.24 174.578 161.818C174.578 142.084 189.614 127.062 213.111 127.062C229.84 127.062 241.867 132.884 250.534 148.129L230.045 161.284C225.533 153.195 220.667 150.009 213.111 150.009C205.405 150.009 200.52 154.898 200.52 161.284C200.52 169.178 205.409 172.373 216.698 177.262L223.276 180.08C245.631 189.666 258.254 199.44 258.254 221.413C258.254 245.102 239.645 258.08 214.654 258.08C190.218 258.08 174.431 246.435 166.707 231.173L188.089 218.751ZM95.1424 221.031C99.2757 228.364 103.036 234.564 112.076 234.564C120.72 234.564 126.174 231.182 126.174 218.031V128.564H152.485V218.386C152.485 245.631 136.511 258.031 113.196 258.031C92.1291 258.031 79.9291 247.129 73.7246 233.998L95.1424 221.031Z" fill="black"/>
</svg>
