<svg width="154" height="120" viewBox="0 0 154 120" fill="none" xmlns="http://www.w3.org/2000/svg">
<path d="M36.3281 42.4648C35.8008 46.9766 34.1309 50.4629 31.3184 52.9238C28.5254 55.3652 24.8047 56.5859 20.1562 56.5859C15.1172 56.5859 11.0742 54.7793 8.02734 51.166C5 47.5527 3.48633 42.7188 3.48633 36.6641V32.5625C3.48633 28.5977 4.18945 25.1113 5.5957 22.1035C7.02148 19.0957 9.0332 16.791 11.6309 15.1895C14.2285 13.5684 17.2363 12.7578 20.6543 12.7578C25.1855 12.7578 28.8184 14.0273 31.5527 16.5664C34.2871 19.0859 35.8789 22.582 36.3281 27.0547H30.6738C30.1855 23.6562 29.1211 21.1953 27.4805 19.6719C25.8594 18.1484 23.584 17.3867 20.6543 17.3867C17.0605 17.3867 14.2383 18.7148 12.1875 21.3711C10.1562 24.0273 9.14062 27.8066 9.14062 32.709V36.8398C9.14062 41.4688 10.1074 45.1504 12.041 47.8848C13.9746 50.6191 16.6797 51.9863 20.1562 51.9863C23.2812 51.9863 25.6738 51.2832 27.334 49.877C29.0137 48.4512 30.127 45.9805 30.6738 42.4648H36.3281ZM76.8457 36.0488C76.8457 40.2285 76.1426 43.8809 74.7363 47.0059C73.3301 50.1113 71.3379 52.4844 68.7598 54.125C66.1816 55.7656 63.1738 56.5859 59.7363 56.5859C56.377 56.5859 53.3984 55.7656 50.8008 54.125C48.2031 52.4648 46.1816 50.1113 44.7363 47.0645C43.3105 43.998 42.5781 40.4531 42.5391 36.4297V33.3535C42.5391 29.252 43.252 25.6289 44.6777 22.4844C46.1035 19.3398 48.1152 16.9375 50.7129 15.2773C53.3301 13.5977 56.3184 12.7578 59.6777 12.7578C63.0957 12.7578 66.1035 13.5879 68.7012 15.248C71.3184 16.8887 73.3301 19.2813 74.7363 22.4258C76.1426 25.5508 76.8457 29.1934 76.8457 33.3535V36.0488ZM71.25 33.2949C71.25 28.2363 70.2344 24.3594 68.2031 21.6641C66.1719 18.9492 63.3301 17.5918 59.6777 17.5918C56.123 17.5918 53.3203 18.9492 51.2695 21.6641C49.2383 24.3594 48.1934 28.1094 48.1348 32.9141V36.0488C48.1348 40.9512 49.1602 44.8086 51.2109 47.6211C53.2812 50.4141 56.123 51.8105 59.7363 51.8105C63.3691 51.8105 66.1816 50.4922 68.1738 47.8555C70.166 45.1992 71.1914 41.4004 71.25 36.459V33.2949ZM85.2832 56V13.3438H97.3242C101.035 13.3438 104.316 14.1641 107.168 15.8047C110.02 17.4453 112.217 19.7793 113.76 22.8066C115.322 25.834 116.113 29.3105 116.133 33.2363V35.9609C116.133 39.9844 115.352 43.5098 113.789 46.5371C112.246 49.5645 110.029 51.8887 107.139 53.5098C104.268 55.1309 100.918 55.9609 97.0898 56H85.2832ZM90.9082 17.9727V51.4004H96.8262C101.162 51.4004 104.531 50.0527 106.934 47.3574C109.355 44.6621 110.566 40.8242 110.566 35.8438V33.3535C110.566 28.5098 109.424 24.75 107.139 22.0742C104.873 19.3789 101.65 18.0117 97.4707 17.9727H90.9082ZM148.77 36.2832H130.283V51.4004H151.758V56H124.658V13.3438H151.465V17.9727H130.283V31.6836H148.77V36.2832Z" fill="white"/>
<path d="M42.4766 87.1621H24.5762V106H18.9512V63.3438H45.377V67.9727H24.5762V82.5625H42.4766V87.1621ZM70.6895 94.8672H52.8184L48.8047 106H43.0039L59.293 63.3438H64.2148L80.5332 106H74.7617L70.6895 94.8672ZM54.5176 90.2383H69.0195L61.7539 70.2871L54.5176 90.2383ZM98.8438 86.9863C94.0195 85.5996 90.5039 83.9004 88.2969 81.8887C86.1094 79.8574 85.0156 77.3574 85.0156 74.3887C85.0156 71.0293 86.3535 68.2559 89.0293 66.0684C91.7246 63.8613 95.2207 62.7578 99.5176 62.7578C102.447 62.7578 105.055 63.3242 107.34 64.457C109.645 65.5898 111.422 67.1523 112.672 69.1445C113.941 71.1367 114.576 73.3145 114.576 75.6777H108.922C108.922 73.0996 108.102 71.0781 106.461 69.6133C104.82 68.1289 102.506 67.3867 99.5176 67.3867C96.7441 67.3867 94.5762 68.002 93.0137 69.2324C91.4707 70.4434 90.6992 72.1328 90.6992 74.3008C90.6992 76.0391 91.4316 77.5137 92.8965 78.7246C94.3809 79.916 96.8906 81.0098 100.426 82.0059C103.98 83.002 106.754 84.1055 108.746 85.3164C110.758 86.5078 112.242 87.9043 113.199 89.5059C114.176 91.1074 114.664 92.9922 114.664 95.1602C114.664 98.6172 113.316 101.391 110.621 103.48C107.926 105.551 104.322 106.586 99.8105 106.586C96.8809 106.586 94.1465 106.029 91.6074 104.916C89.0684 103.783 87.1055 102.24 85.7188 100.287C84.3516 98.334 83.668 96.1172 83.668 93.6367H89.3223C89.3223 96.2148 90.2695 98.2559 92.1641 99.7598C94.0781 101.244 96.627 101.986 99.8105 101.986C102.779 101.986 105.055 101.381 106.637 100.17C108.219 98.959 109.01 97.3086 109.01 95.2188C109.01 93.1289 108.277 91.5176 106.812 90.3848C105.348 89.2324 102.691 88.0996 98.8438 86.9863ZM151.373 67.9727H137.662V106H132.066V67.9727H118.385V63.3438H151.373V67.9727Z" fill="white"/>
<path d="M14 97.5664V98.98H9.0708V104.356H14V105.762H3.33594V104.356H7.9209L7.9209 98.98H3.33594V97.5664H14ZM9.0708 89.041L9.0708 93.6626H12.8501L12.8501 88.2939H14L14 95.0688H3.33594L3.33594 88.3672H4.49316V93.6626H7.9209V89.041H9.0708ZM12.8501 85.1299V80.0762H14V86.5435H3.33594V85.1299H12.8501ZM12.8501 77.0586V72.0049H14V78.4722H3.33594V77.0586H12.8501ZM11.2168 64.3657V68.8335L14 69.8369V71.2871L3.33594 67.2148L3.33594 65.9844L14 61.9048V63.3477L11.2168 64.3657ZM10.0596 68.4087V64.7832L5.07178 66.5996L10.0596 68.4087Z" fill="white"/>
</svg>
