<svg width="280" height="148" viewBox="0 0 280 148" fill="none" xmlns="http://www.w3.org/2000/svg">
<path d="M0 73.9525C0 114.625 62.6814 147.598 140 147.598C217.318 147.598 280 114.625 280 73.9525C280 33.2802 217.318 0.307274 140 0.307274C62.6814 0.307274 0 33.2802 0 73.9525Z" fill="url(#paint0_radial)"/>
<path d="M140 142.13C214.298 142.13 274.531 111.606 274.531 73.9524C274.531 36.2996 214.298 5.77494 140 5.77494C65.7013 5.77494 5.46875 36.2996 5.46875 73.9524C5.46875 111.606 65.7013 142.13 140 142.13Z" fill="#AEAEAE"/>
<path d="M76.0629 82.4052C82.1722 82.4052 86.733 81.2785 89.6188 79.0576C92.4737 76.8595 94.4455 73.0511 95.4789 67.7389C96.4426 62.7734 96.0754 59.3064 94.3882 57.4353C92.663 55.5243 88.9332 54.5551 83.3024 54.5551H73.5392L68.1266 82.4052H76.0629ZM44.13 116.711C43.6768 116.711 43.2464 116.509 42.9583 116.158C42.6697 115.809 42.5527 115.348 42.6393 114.903L56.9836 41.0995C57.1223 40.386 57.7477 39.8706 58.4748 39.8706H89.3904C99.1065 39.8706 106.338 42.5087 110.884 47.7126C115.454 52.9439 116.865 60.2563 115.078 69.4463C114.351 73.1904 113.1 76.6676 111.361 79.7807C109.62 82.8974 107.318 85.7811 104.52 88.3535C101.169 91.4889 97.3778 93.7625 93.2601 95.1003C89.2076 96.4204 84.0032 97.0898 77.7916 97.0898H65.2733L61.6983 115.482C61.5596 116.196 60.9347 116.711 60.2076 116.711H44.13Z" fill="black"/>
<path d="M74.792 56.0742H83.303C90.0989 56.0742 92.4596 57.5654 93.2617 58.4541C94.5924 59.9296 94.8436 63.0408 93.9883 67.4507C93.0273 72.3877 91.2459 75.8882 88.6928 77.854C86.0789 79.8662 81.8295 80.8861 76.0635 80.8861H69.9699L74.792 56.0742ZM89.391 38.3514H58.4749C57.0207 38.3514 55.7704 39.3824 55.493 40.8098L41.1487 114.613C40.9755 115.504 41.2094 116.425 41.7862 117.125C42.3634 117.825 43.2232 118.23 44.1306 118.23H60.2077C61.6625 118.23 62.9127 117.2 63.1902 115.772L66.5261 98.6088H77.7923C84.1633 98.6088 89.5268 97.9141 93.7321 96.5444C98.057 95.1392 102.036 92.7568 105.558 89.4634C108.47 86.7837 110.87 83.7759 112.687 80.5225C114.506 77.2681 115.812 73.639 116.57 69.7359C118.451 60.0623 116.923 52.316 112.029 46.7135C107.182 41.1648 99.5649 38.3514 89.391 38.3514ZM66.2841 83.9243H76.0635C82.5455 83.9243 87.3737 82.7034 90.5461 80.2612C93.7189 77.8185 95.8588 73.7418 96.9708 68.029C98.0347 62.544 97.5501 58.6734 95.517 56.4185C93.4815 54.1637 89.4108 53.036 83.303 53.036H72.2876L66.2841 83.9243V83.9243ZM89.391 41.3896C98.6914 41.3896 105.476 43.8303 109.741 48.7121C114.005 53.594 115.289 60.4082 113.588 69.1566C112.887 72.7604 111.703 76.0553 110.036 79.0404C108.366 82.0274 106.186 84.7587 103.492 87.2354C100.282 90.2396 96.7156 92.3805 92.7913 93.6556C88.867 94.9341 83.8686 95.5706 77.7923 95.5706H64.0212L60.2077 115.192H44.1306L58.4749 41.3896H89.391" fill="white"/>
<path d="M151.942 97.0898C151.488 97.0898 151.058 96.8873 150.77 96.5369C150.481 96.187 150.364 95.7267 150.451 95.2811L156.796 62.6261C157.399 59.5206 157.251 57.2916 156.377 56.3498C155.842 55.774 154.236 54.8084 149.487 54.8084H137.991L130.014 95.8604C129.875 96.5744 129.25 97.0898 128.522 97.0898H112.572C112.118 97.0898 111.688 96.8873 111.4 96.5369C111.111 96.187 110.994 95.7262 111.081 95.2811L125.425 21.4779C125.564 20.7645 126.189 20.249 126.916 20.249H142.867C143.32 20.249 143.75 20.4515 144.039 20.8014C144.328 21.1518 144.445 21.6121 144.358 22.0577L140.896 39.8706H153.263C162.684 39.8706 169.072 41.5315 172.793 44.9484C176.586 48.4343 177.769 54.0078 176.311 61.5162L169.637 95.8604C169.498 96.5744 168.873 97.0898 168.145 97.0898H151.942Z" fill="black"/>
<path d="M142.866 18.7298H126.916C125.461 18.7298 124.211 19.7608 123.933 21.1882L109.589 94.9914C109.416 95.8821 109.65 96.8032 110.227 97.5035C110.804 98.2038 111.664 98.6089 112.572 98.6089H128.522C129.976 98.6089 131.227 97.5779 131.505 96.1505L139.243 56.3274H149.487C154.228 56.3274 155.223 57.3402 155.263 57.3837C155.55 57.6931 155.929 59.1261 155.304 62.3365L148.959 94.9914C148.786 95.8821 149.02 96.8032 149.597 97.5035C150.174 98.2038 151.034 98.6089 151.941 98.6089H168.145C169.599 98.6089 170.85 97.5779 171.128 96.1505L177.801 61.8063C179.367 53.7445 178.027 47.6969 173.82 43.8303C169.806 40.1435 163.081 38.3515 153.263 38.3515H142.738L145.849 22.3478C146.022 21.4571 145.788 20.5355 145.211 19.8357C144.634 19.1354 143.774 18.7298 142.866 18.7298ZM142.866 21.768L139.053 41.3897H153.263C162.203 41.3897 168.37 42.9503 171.765 46.0675C175.159 49.1867 176.176 54.2407 174.819 61.227L168.145 95.5707H151.941L158.287 62.9162C159.009 59.2016 158.743 56.6677 157.49 55.3167C156.235 53.9657 153.567 53.2892 149.487 53.2892H136.738L128.522 95.5707H112.572L126.916 21.768H142.866Z" fill="white"/>
<path d="M201.548 82.4052C207.657 82.4052 212.218 81.2785 215.104 79.0576C217.959 76.86 219.931 73.0516 220.965 67.7389C221.928 62.7734 221.561 59.3064 219.874 57.4353C218.148 55.5243 214.418 54.5551 208.788 54.5551H199.024L193.612 82.4052H201.548ZM169.616 116.711C169.163 116.711 168.732 116.509 168.444 116.158C168.155 115.809 168.038 115.348 168.125 114.903L182.469 41.0995C182.608 40.386 183.233 39.8706 183.961 39.8706H214.876C224.592 39.8706 231.824 42.5087 236.37 47.7126C240.94 52.9434 242.351 60.2558 240.564 69.4463C239.836 73.1904 238.586 76.6676 236.846 79.7807C235.105 82.8974 232.804 85.7811 230.005 88.3535C226.655 91.4889 222.863 93.7625 218.745 95.1003C214.693 96.4204 209.488 97.0898 203.277 97.0898H190.758L187.185 115.482C187.045 116.196 186.421 116.711 185.693 116.711H169.616Z" fill="black"/>
<path d="M200.277 56.0742H208.788C215.584 56.0742 217.944 57.5654 218.747 58.4541C220.078 59.9296 220.329 63.0408 219.473 67.4502C218.512 72.3877 216.73 75.8882 214.178 77.854C211.564 79.8662 207.314 80.8861 201.548 80.8861H195.455L200.277 56.0742ZM214.876 38.3514H183.96C182.506 38.3514 181.256 39.3824 180.978 40.8098L166.634 114.613C166.461 115.504 166.695 116.425 167.272 117.125C167.849 117.825 168.709 118.23 169.616 118.23H185.693C187.147 118.23 188.398 117.2 188.676 115.772L192.011 98.6088H203.277C209.648 98.6088 215.012 97.9141 219.217 96.5444C223.542 95.1392 227.522 92.7563 231.044 89.4624C233.956 86.7832 236.354 83.7759 238.172 80.5225C239.991 77.2681 241.297 73.639 242.055 69.7359C243.936 60.0618 242.408 52.3154 237.513 46.713C232.667 41.1648 225.05 38.3514 214.876 38.3514ZM191.769 83.9243H201.548C208.03 83.9243 212.859 82.7034 216.031 80.2612C219.204 77.8185 221.344 73.7418 222.456 68.029C223.52 62.544 223.035 58.6734 221.002 56.4185C218.966 54.1637 214.896 53.036 208.788 53.036H197.772L191.769 83.9243ZM214.876 41.3896C224.176 41.3896 230.961 43.8303 235.226 48.7121C239.49 53.594 240.774 60.4082 239.073 69.1566C238.372 72.7604 237.188 76.0553 235.52 79.0404C233.851 82.0274 231.671 84.7587 228.977 87.2354C225.767 90.2396 222.2 92.3805 218.276 93.6556C214.352 94.9341 209.353 95.5706 203.277 95.5706H189.506L185.693 115.192H169.616L183.96 41.3896H214.876" fill="white"/>
<defs>
<radialGradient id="paint0_radial" cx="0" cy="0" r="1" gradientUnits="userSpaceOnUse" gradientTransform="translate(84.0566 26.1987) scale(183.84)">
<stop stop-color="#CFCFCF"/>
<stop offset="0.3" stop-color="#D5D5D5"/>
<stop offset="0.75" stop-color="#777777"/>
<stop offset="1" stop-color="#838383"/>
</radialGradient>
</defs>
</svg>
