<svg width="111" height="113" viewBox="0 0 111 113" fill="none" xmlns="http://www.w3.org/2000/svg">
<path d="M54.5104 0.397961C49.9264 0.419261 45.5494 0.810161 41.7004 1.49196C30.3504 3.49696 28.2904 7.69196 28.2904 15.432V25.652H55.1004V29.058H28.2904H18.2304C10.4384 29.058 3.61037 33.742 1.48037 42.648C-0.98163 52.858 -1.09063 59.238 1.48037 69.898C3.38637 77.836 7.93837 83.488 15.7304 83.488H24.9494V71.238C24.9494 62.388 32.6064 54.578 41.6994 54.578H68.4794C75.9344 54.578 81.8894 48.44 81.8894 40.958V15.428C81.8894 8.16196 75.7594 2.70796 68.4794 1.48796C63.8734 0.721261 59.0944 0.372961 54.5094 0.393961L54.5104 0.397961ZM40.0104 8.61696C42.7804 8.61696 45.0414 10.916 45.0414 13.742C45.0414 16.558 42.7794 18.836 40.0104 18.836C37.2314 18.836 34.9794 16.559 34.9794 13.742C34.9794 10.916 37.2314 8.61696 40.0104 8.61696V8.61696Z" fill="url(#paint0_linear)"/>
<path d="M85.23 29.0498V40.9598C85.23 50.1908 77.404 57.9598 68.48 57.9598H41.7C34.364 57.9598 28.29 64.2378 28.29 71.5798V97.1098C28.29 104.376 34.609 108.65 41.7 110.73C50.187 113.226 58.33 113.677 68.48 110.73C75.23 108.776 81.89 104.842 81.89 97.1098V86.8898H55.11V83.4838H81.89H95.3C103.092 83.4838 106 78.0488 108.71 69.8938C111.509 61.4948 111.39 53.4138 108.71 42.6438C106.784 34.8868 103.106 29.0538 95.3 29.0538H85.24L85.23 29.0498ZM70.17 93.7098C72.949 93.7098 75.201 95.9868 75.201 98.8038C75.201 101.63 72.949 103.929 70.17 103.929C67.4 103.929 65.139 101.63 65.139 98.8038C65.139 95.9878 67.401 93.7098 70.17 93.7098Z" fill="url(#paint1_linear)"/>
<defs>
<linearGradient id="paint0_linear" x1="-0.409005" y1="0.395761" x2="61.4385" y2="53.0791" gradientUnits="userSpaceOnUse">
<stop stop-color="#A0A0A0"/>
<stop offset="1" stop-color="#646464"/>
</linearGradient>
<linearGradient id="paint1_linear" x1="69.5375" y1="97.978" x2="47.3147" y2="66.8851" gradientUnits="userSpaceOnUse">
<stop stop-color="#9D9D9D"/>
<stop offset="1" stop-color="#B9B9B9"/>
</linearGradient>
</defs>
</svg>
