<svg width="105" height="105" viewBox="0 0 105 105" fill="none" xmlns="http://www.w3.org/2000/svg">
<path d="M52.4994 30.5791C40.4459 30.5791 30.6397 40.3853 30.6397 52.4388C30.6397 64.4922 40.4459 74.2985 52.4994 74.2985C64.5516 74.2985 74.3591 64.4922 74.3591 52.4388C74.3591 40.3851 64.5516 30.5791 52.4994 30.5791ZM52.4994 66.93C44.5083 66.93 38.0082 60.4299 38.0082 52.4388C38.0082 44.4477 44.5083 37.9476 52.4994 37.9476C60.4905 37.9476 66.9906 44.4477 66.9906 52.4388C66.9906 60.4299 60.4905 66.93 52.4994 66.93Z" fill="#C4C4C4"/>
<path d="M97.2811 36.8876L92.0385 36.0144L95.0228 31.7689C97.7343 28.1521 97.3254 22.9599 94.1581 19.9929L84.8248 10.6596C81.6355 7.47018 76.544 7.124 73.055 9.79125L68.8993 12.8086L68.063 7.85203C67.4414 3.30237 63.6848 0 59.131 0H45.8678C41.4051 0 37.5672 3.31324 36.9532 7.62255L36.0739 12.9009L31.8283 9.91778C28.2103 7.20378 23.0169 7.6127 20.0523 10.7812L10.7192 20.1145C7.53109 23.3014 7.18123 28.3929 9.8374 31.8646L12.9113 36.1555L7.91438 36.9992C3.36308 37.6193 0.0609131 41.3747 0.0609131 45.9297V59.1929C0.0609131 63.7295 3.30176 67.4836 7.68223 68.1062L12.9605 68.9868L9.97747 73.2324C7.26469 76.8491 7.67362 82.0413 10.8408 85.0071L20.1754 94.3417C21.8505 96.018 24.2476 97.0177 26.5872 97.0177C28.5165 97.0177 30.3844 96.3804 31.9255 95.2235L36.2164 92.1496L37.0601 97.1465C37.679 101.698 41.4356 105 45.9906 105H59.2538C63.7892 105 67.5445 101.758 68.1659 97.3799L69.0465 92.1004L73.2527 95.0551C74.8835 96.277 76.7429 96.8972 78.7777 96.8972C81.1872 96.8972 83.4652 95.9454 85.1907 94.2199L94.524 84.8866C97.7134 81.6996 98.062 76.6082 95.3689 73.0835L92.2042 68.8259L97.0856 68.0031C101.637 67.3817 104.939 63.6251 104.939 59.0713V45.8083C104.939 41.3626 101.652 37.5361 97.2811 36.8876ZM97.5696 59.0678C97.5696 59.9238 96.9728 60.5784 95.9731 60.7171L85.0445 62.5591C83.7808 62.7715 82.7185 63.6275 82.2396 64.8176C81.7608 66.0077 81.9363 67.3598 82.7002 68.3901L89.484 77.5171C89.9434 78.1163 89.8634 79.1259 89.3146 79.6747L79.9813 89.008C79.6275 89.3618 79.2457 89.5262 78.7789 89.5262C78.3491 89.5262 78.0187 89.4169 77.5815 89.0915L68.4938 82.7055C67.4574 81.9749 66.1188 81.8348 64.9521 82.3212C63.7855 82.8099 62.9491 83.8649 62.7416 85.1138L60.8861 96.2512C60.7718 97.0506 60.0854 97.6315 59.2528 97.6315H45.9896C45.1361 97.6315 44.4802 97.036 44.3428 96.0362L42.5008 85.1064C42.2896 83.8538 41.4471 82.7989 40.2718 82.3138C39.8198 82.126 39.3422 82.0351 38.8681 82.0351C38.1103 82.0351 37.3574 82.2685 36.7225 82.7228L27.5685 89.2806C27.243 89.525 26.9126 89.6491 26.5872 89.6491C26.209 89.6491 25.6698 89.4182 25.3848 89.1321L15.9655 79.7153C15.4289 79.2131 15.3907 78.2822 15.8808 77.6424C15.9116 77.603 15.9409 77.5626 15.9692 77.522L22.3552 68.4344C23.0834 67.3979 23.2284 66.0606 22.7395 64.8927C22.2508 63.726 21.1959 62.8897 19.9469 62.6821L8.80955 60.8266C8.01015 60.7124 7.42917 60.026 7.42917 59.1933V45.9301C7.42917 45.0754 8.02348 44.4207 9.02324 44.2821L19.9531 42.4401C21.2069 42.2289 22.2619 41.3864 22.7469 40.2111C23.2319 39.0358 23.0772 37.6936 22.3367 36.6608L15.7592 27.4805C15.3011 26.88 15.3798 25.8716 15.9286 25.3228L25.3442 15.9048C25.8476 15.3669 26.7773 15.3312 27.4183 15.8214C27.4577 15.8509 27.4969 15.8802 27.5375 15.9085L36.6251 22.2945C37.6603 23.0227 38.9977 23.1689 40.1668 22.6788C41.3347 22.1901 42.1698 21.1351 42.3773 19.8862L44.2329 8.74884C44.3471 7.94944 45.0335 7.36846 45.8661 7.36846H59.1294C59.9854 7.36846 60.64 7.964 60.7798 8.96499L62.6218 19.8948C62.8331 21.1524 63.6805 22.211 64.8607 22.6935C66.0397 23.1749 67.3856 23.0128 68.4184 22.2637L77.4558 15.6996C78.0538 15.2414 79.0634 15.3189 79.6134 15.8689L89.0314 25.2845C89.5668 25.7867 89.605 26.7188 89.1149 27.3587C89.0866 27.398 89.056 27.4372 89.0289 27.4778L82.643 36.5654C81.9148 37.6019 81.771 38.9392 82.2587 40.1071C82.7474 41.2751 83.8023 42.1101 85.0512 42.3177L96.1039 44.1597C96.1322 44.1646 96.1603 44.1695 96.1886 44.1732C96.988 44.2874 97.569 44.9738 97.569 45.8065V59.0678H97.5696Z" fill="#C4C4C4"/>
</svg>
