<svg width="119" height="119" viewBox="0 0 119 119" fill="none" xmlns="http://www.w3.org/2000/svg">
<path d="M70.1668 8.5H49.0001C46.2385 8.5 44 10.7382 44 13.5001V105.333C44 108.095 46.2382 110.334 49.0001 110.334H70.1668C72.9284 110.334 75.1669 108.095 75.1669 105.333V13.5001C75.1666 10.7385 72.9284 8.5 70.1668 8.5ZM65.1667 100.333H54V18.5002H65.1667V100.333Z" fill="#C4C4C4"/>
<path d="M26.1668 50H5.00009C2.23822 50 0 52.2385 0 55.0001V105.5C0 108.262 2.23822 110.5 5.00009 110.5H26.1668C28.9284 110.5 31.1668 108.264 31.1668 105.5V55.0001C31.1666 52.2385 28.9284 50 26.1668 50ZM21.1667 100.5H9.99995V59.9999H21.1667V100.5Z" fill="#C4C4C4"/>
<path d="M114 38.167H92.8332C90.0716 38.167 87.8332 40.4052 87.8332 43.1671V105.501C87.8332 108.262 90.0714 110.501 92.8332 110.501H114C116.763 110.501 119 108.264 119 105.501V43.1669C119 40.4052 116.762 38.167 114 38.167ZM109 100.5H97.8333V48.1669H109V100.5Z" fill="#C4C4C4"/>
</svg>
